<svg version="1.1" id="Layer_1" xmlns="http://www.w3.org/2000/svg" xmlns:xlink="http://www.w3.org/1999/xlink" x="0px" y="0px"
	 width="100%" viewBox="0 0 512 512" enable-background="new 0 0 512 512" xml:space="preserve">
<path fill="#262B41" opacity="1.000000" stroke="none" 
	d="
M431.000000,1.000000 
	C458.315643,1.000000 485.631256,1.000000 512.944641,1.000003 
	C512.942383,171.666672 512.942383,342.333344 512.942383,513.000000 
	C485.902313,513.000000 458.919830,513.000000 431.466187,512.576721 
	C431.256073,507.696442 431.729034,503.239899 431.738068,498.782379 
	C431.764252,485.828613 431.601776,472.874512 431.518341,459.920471 
	C431.368500,436.653717 431.136536,413.387085 431.099792,390.120178 
	C431.065918,368.679382 431.298920,347.238281 431.297546,325.797302 
	C431.297089,318.358826 430.786407,310.920288 430.789093,303.481873 
	C430.794647,287.934357 431.061584,272.386963 431.075439,256.839386 
	C431.084595,246.574783 430.687714,236.309067 430.745300,226.045380 
	C430.827820,211.333359 431.355438,196.622391 431.329834,181.911591 
	C431.303406,166.727768 430.755493,151.545624 430.597687,136.361053 
	C430.464203,123.511543 430.483307,110.659050 430.577606,97.808922 
	C430.696503,81.604019 431.059357,65.400642 431.133820,49.195755 
	C431.207672,33.131046 431.053925,17.065294 431.000000,1.000000 
z"/>
<path fill="#181A1F" opacity="1.000000" stroke="none" 
	d="
M80.000000,513.000000 
	C53.683895,513.000000 27.367792,513.000000 1.054092,513.000000 
	C1.056497,342.333313 1.056497,171.666656 1.056497,1.000000 
	C26.762890,1.000000 52.412788,1.000000 78.549362,1.429410 
	C79.337158,5.504342 79.932693,9.153419 79.888725,12.794775 
	C79.692154,29.073639 79.059639,45.350346 79.062454,61.627747 
	C79.066216,83.388794 79.684273,105.149551 79.711975,126.910851 
	C79.733543,143.845093 79.058746,160.779907 79.053764,177.714584 
	C79.048393,195.983627 79.653320,214.252899 79.642624,232.521881 
	C79.630470,253.272919 79.096954,274.023315 79.030510,294.774750 
	C78.919769,329.359985 78.928215,363.946014 79.031349,398.531281 
	C79.081856,415.467682 79.607361,432.402802 79.642120,449.339081 
	C79.672775,464.277069 79.215111,479.215576 79.186661,494.154297 
	C79.174698,500.435638 79.712257,506.718079 80.000000,513.000000 
z"/>
<path fill="#1B1D25" opacity="1.000000" stroke="none" 
	d="
M80.468658,513.000000 
	C79.712257,506.718079 79.174698,500.435638 79.186661,494.154297 
	C79.215111,479.215576 79.672775,464.277069 79.642120,449.339081 
	C79.607361,432.402802 79.081856,415.467682 79.031349,398.531281 
	C78.928215,363.946014 78.919769,329.359985 79.030510,294.774750 
	C79.096954,274.023315 79.630470,253.272919 79.642624,232.521881 
	C79.653320,214.252899 79.048393,195.983627 79.053764,177.714584 
	C79.058746,160.779907 79.733543,143.845093 79.711975,126.910851 
	C79.684273,105.149551 79.066216,83.388794 79.062454,61.627747 
	C79.059639,45.350346 79.692154,29.073639 79.888725,12.794775 
	C79.932693,9.153419 79.337158,5.504342 79.018021,1.429410 
	C104.020897,1.000000 129.041794,1.000000 154.591370,1.412171 
	C155.729218,13.098501 156.799667,24.370886 156.843018,35.647221 
	C156.913910,54.079784 156.190079,72.514038 156.061325,90.949387 
	C156.009125,98.423798 156.951141,105.905167 156.898483,113.379547 
	C156.750961,134.313004 156.216064,155.243683 156.060959,176.177155 
	C156.009293,183.151657 156.958664,190.133698 156.904755,197.108078 
	C156.767426,214.877274 156.210007,232.642975 156.033646,250.412201 
	C155.875320,266.364014 155.881882,282.319885 156.041809,298.271667 
	C156.150131,309.075043 156.947021,319.875549 156.906128,330.675354 
	C156.841949,347.611206 156.200439,364.544189 156.044220,381.480591 
	C155.883270,398.931366 156.010742,416.384827 156.011459,433.837097 
	C156.011871,443.628052 155.905243,453.420532 156.044662,463.209503 
	C156.155945,471.023285 156.601822,478.831787 156.824493,486.644745 
	C156.900192,489.300781 156.686203,491.963898 156.712540,494.622711 
	C156.773193,500.748840 156.900024,506.874268 157.000000,513.000000 
	C131.645767,513.000000 106.291542,513.000000 80.468658,513.000000 
z"/>
<path fill="#23283B" opacity="1.000000" stroke="none" 
	d="
M430.531342,1.000000 
	C431.053925,17.065294 431.207672,33.131046 431.133820,49.195755 
	C431.059357,65.400642 430.696503,81.604019 430.577606,97.808922 
	C430.483307,110.659050 430.464203,123.511543 430.597687,136.361053 
	C430.755493,151.545624 431.303406,166.727768 431.329834,181.911591 
	C431.355438,196.622391 430.827820,211.333359 430.745300,226.045380 
	C430.687714,236.309067 431.084595,246.574783 431.075439,256.839386 
	C431.061584,272.386963 430.794647,287.934357 430.789093,303.481873 
	C430.786407,310.920288 431.297089,318.358826 431.297546,325.797302 
	C431.298920,347.238281 431.065918,368.679382 431.099792,390.120178 
	C431.136536,413.387085 431.368500,436.653717 431.518341,459.920471 
	C431.601776,472.874512 431.764252,485.828613 431.738068,498.782379 
	C431.729034,503.239899 431.256073,507.696442 430.997498,512.576721 
	C407.645782,513.000000 384.291534,513.000000 360.471252,512.572327 
	C360.118164,509.649078 360.335632,507.153168 360.328217,504.657959 
	C360.237976,474.196960 359.979706,443.735870 360.037689,413.275269 
	C360.096588,382.321075 360.581482,351.367645 360.640625,320.413422 
	C360.674316,302.792877 360.013885,285.171021 360.047363,267.550476 
	C360.106812,236.262985 360.567688,204.976288 360.638397,173.688766 
	C360.674469,157.713547 360.030151,141.737015 360.050262,125.761505 
	C360.075592,105.635490 360.652985,85.509872 360.647308,65.384186 
	C360.641266,43.922729 360.232788,22.461390 360.000000,1.000000 
	C383.354218,1.000000 406.708466,1.000000 430.531342,1.000000 
z"/>
<path fill="#1F2330" opacity="1.000000" stroke="none" 
	d="
M222.000000,1.000000 
	C245.687561,1.000000 269.375122,1.000000 293.439178,1.402439 
	C293.872772,7.265136 293.967590,12.725312 293.979431,18.185669 
	C294.007538,31.140343 293.933197,44.095673 294.050842,57.049374 
	C294.076294,59.849140 295.516113,62.807915 294.966614,65.411034 
	C292.697235,76.161713 293.304871,86.874786 293.853760,97.719971 
	C294.314362,106.820946 293.130951,115.992500 293.140106,125.132347 
	C293.150116,135.114105 293.694519,145.095322 293.719849,155.289703 
	C281.830750,158.906479 275.570618,167.730225 270.819946,177.984909 
	C262.943115,194.987610 261.080109,213.110947 260.912994,231.569992 
	C260.747742,249.818008 261.852295,267.887634 268.272217,285.189941 
	C273.048309,298.061951 279.910797,309.217834 294.029602,314.161163 
	C294.372131,317.187958 295.028076,319.816528 294.979431,322.432007 
	C294.779480,333.183105 294.379730,343.930725 294.025452,354.678650 
	C293.713715,364.135498 293.049988,373.592682 293.098785,383.046875 
	C293.194672,401.636688 293.801544,420.223572 293.938080,438.813599 
	C293.991669,446.116608 293.035187,453.427094 293.089355,460.730072 
	C293.218567,478.154663 293.675446,495.576843 294.000000,513.000000 
	C270.312439,513.000000 246.624878,513.000000 222.468781,512.531372 
	C221.848450,501.620483 221.551895,491.177887 221.575745,480.736023 
	C221.621658,460.637848 221.825378,440.539917 222.019638,420.442383 
	C222.061340,416.127411 222.494324,411.814423 222.484192,407.501129 
	C222.440536,388.910278 222.418793,370.317993 222.153915,351.729553 
	C221.955200,337.785065 221.398041,323.845673 221.270630,309.700195 
	C224.260422,307.608154 227.284866,306.037811 229.644989,303.774658 
	C238.239899,295.532990 242.505585,284.895569 245.179962,273.605347 
	C250.780869,249.960510 250.830414,226.033493 246.797974,202.254898 
	C243.894180,185.131836 238.340729,168.906830 221.960037,158.928223 
	C222.171478,157.032669 222.460632,155.543839 222.451645,154.056808 
	C222.325043,133.135437 222.074570,112.214508 222.020386,91.293045 
	C221.942459,61.195549 222.000183,31.097700 222.000000,1.000000 
z"/>
<path fill="#212535" opacity="1.000000" stroke="none" 
	d="
M294.005981,155.076782 
	C293.694519,145.095322 293.150116,135.114105 293.140106,125.132347 
	C293.130951,115.992500 294.314362,106.820946 293.853760,97.719971 
	C293.304871,86.874786 292.697235,76.161713 294.966614,65.411034 
	C295.516113,62.807915 294.076294,59.849140 294.050842,57.049374 
	C293.933197,44.095673 294.007538,31.140343 293.979431,18.185669 
	C293.967590,12.725312 293.872772,7.265136 293.907837,1.402439 
	C315.687561,1.000000 337.375122,1.000000 359.531372,1.000000 
	C360.232788,22.461390 360.641266,43.922729 360.647308,65.384186 
	C360.652985,85.509872 360.075592,105.635490 360.050262,125.761505 
	C360.030151,141.737015 360.674469,157.713547 360.638397,173.688766 
	C360.567688,204.976288 360.106812,236.262985 360.047363,267.550476 
	C360.013885,285.171021 360.674316,302.792877 360.640625,320.413422 
	C360.581482,351.367645 360.096588,382.321075 360.037689,413.275269 
	C359.979706,443.735870 360.237976,474.196960 360.328217,504.657959 
	C360.335632,507.153168 360.118164,509.649078 360.002563,512.572327 
	C338.312439,513.000000 316.624878,513.000000 294.468658,513.000000 
	C293.675446,495.576843 293.218567,478.154663 293.089355,460.730072 
	C293.035187,453.427094 293.991669,446.116608 293.938080,438.813599 
	C293.801544,420.223572 293.194672,401.636688 293.098785,383.046875 
	C293.049988,373.592682 293.713715,364.135498 294.025452,354.678650 
	C294.379730,343.930725 294.779480,333.183105 294.979431,322.432007 
	C295.028076,319.816528 294.372131,317.187958 294.482239,314.116089 
	C308.531647,314.711243 318.082642,308.846802 324.922791,295.045319 
	C335.130524,274.449097 334.741760,252.348831 333.930847,230.207260 
	C333.921082,229.940430 333.575806,229.685883 332.900940,228.754807 
	C326.925232,228.754807 320.463196,228.754807 314.000854,228.301727 
	C314.000488,223.718811 313.774323,219.572510 314.073151,215.464401 
	C314.304382,212.285934 315.192780,209.155273 315.945099,206.399323 
	C321.505981,207.334885 326.910858,207.874481 332.929596,208.475357 
	C332.929596,205.459641 333.141724,203.483932 332.894409,201.567520 
	C331.528564,190.983032 328.715607,180.903290 323.229004,171.576462 
	C316.608459,160.322006 307.737946,153.513611 294.005981,155.076782 
z"/>
<path fill="#1D202B" opacity="1.000000" stroke="none" 
	d="
M221.531342,1.000000 
	C222.000183,31.097700 221.942459,61.195549 222.020386,91.293045 
	C222.074570,112.214508 222.325043,133.135437 222.451645,154.056808 
	C222.460632,155.543839 222.171478,157.032669 221.607834,158.930420 
	C220.128632,158.908508 219.062561,158.476852 217.870026,157.779251 
	C216.492233,157.360596 215.240906,157.207870 213.523407,157.101044 
	C202.475281,157.146957 191.893326,157.146957 181.444458,157.146957 
	C181.444458,209.105759 181.444458,260.313660 181.444458,311.879364 
	C187.699707,311.879364 193.527359,312.130768 199.324219,311.815674 
	C206.562881,311.422211 213.776199,310.562439 221.000458,309.903992 
	C221.398041,323.845673 221.955200,337.785065 222.153915,351.729553 
	C222.418793,370.317993 222.440536,388.910278 222.484192,407.501129 
	C222.494324,411.814423 222.061340,416.127411 222.019638,420.442383 
	C221.825378,440.539917 221.621658,460.637848 221.575745,480.736023 
	C221.551895,491.177887 221.848450,501.620483 222.000122,512.531372 
	C200.645767,513.000000 179.291550,513.000000 157.468658,513.000000 
	C156.900024,506.874268 156.773193,500.748840 156.712540,494.622711 
	C156.686203,491.963898 156.900192,489.300781 156.824493,486.644745 
	C156.601822,478.831787 156.155945,471.023285 156.044662,463.209503 
	C155.905243,453.420532 156.011871,443.628052 156.011459,433.837097 
	C156.010742,416.384827 155.883270,398.931366 156.044220,381.480591 
	C156.200439,364.544189 156.841949,347.611206 156.906128,330.675354 
	C156.947021,319.875549 156.150131,309.075043 156.041809,298.271667 
	C155.881882,282.319885 155.875320,266.364014 156.033646,250.412201 
	C156.210007,232.642975 156.767426,214.877274 156.904755,197.108078 
	C156.958664,190.133698 156.009293,183.151657 156.060959,176.177155 
	C156.216064,155.243683 156.750961,134.313004 156.898483,113.379547 
	C156.951141,105.905167 156.009125,98.423798 156.061325,90.949387 
	C156.190079,72.514038 156.913910,54.079784 156.843018,35.647221 
	C156.799667,24.370886 155.729218,13.098501 155.060028,1.412171 
	C177.020889,1.000000 199.041794,1.000000 221.531342,1.000000 
z"/>
<path fill="#64BA8D" opacity="1.000000" stroke="none" 
	d="
M217.996475,158.045181 
	C219.062561,158.476852 220.128632,158.908508 221.546921,159.337982 
	C238.340729,168.906830 243.894180,185.131836 246.797974,202.254898 
	C250.830414,226.033493 250.780869,249.960510 245.179962,273.605347 
	C242.505585,284.895569 238.239899,295.532990 229.644989,303.774658 
	C227.284866,306.037811 224.260422,307.608154 221.270630,309.700195 
	C213.776199,310.562439 206.562881,311.422211 199.324219,311.815674 
	C193.527359,312.130768 187.699707,311.879364 181.444458,311.879364 
	C181.444458,260.313660 181.444458,209.105759 181.444458,157.146957 
	C191.893326,157.146957 202.475281,157.146957 213.836487,157.251038 
	C215.742645,157.585144 216.869553,157.815155 217.996475,158.045181 
M218.392822,281.173126 
	C221.678787,276.486816 226.476990,272.239410 227.986603,267.037628 
	C234.224640,245.542725 234.280014,223.588654 228.311142,202.069855 
	C224.245819,187.413681 213.472733,182.243423 198.340439,185.837173 
	C198.340439,218.317566 198.340439,250.823853 198.340439,284.786072 
	C205.180603,283.632080 211.446564,282.574951 218.392822,281.173126 
z"/>
<path fill="#64BA8D" opacity="1.000000" stroke="none" 
	d="
M293.719849,155.289703 
	C307.737946,153.513611 316.608459,160.322006 323.229004,171.576462 
	C328.715607,180.903290 331.528564,190.983032 332.894409,201.567520 
	C333.141724,203.483932 332.929596,205.459641 332.929596,208.475357 
	C326.910858,207.874481 321.505981,207.334885 315.927063,206.018127 
	C313.815704,200.156815 312.634430,194.592575 309.776947,190.092789 
	C304.520172,181.814743 294.351105,181.772095 288.421143,189.659897 
	C286.066437,192.792114 284.152405,196.469849 282.914062,200.190842 
	C276.836761,218.451599 277.055634,237.230240 279.847107,255.929871 
	C280.905182,263.017792 283.233917,270.275238 286.616882,276.578827 
	C292.822784,288.142426 306.928711,287.767639 312.601654,275.910675 
	C315.390503,270.081787 316.124908,263.232758 317.411682,256.770264 
	C317.569763,255.976257 315.482666,253.966461 314.273926,253.815109 
	C310.831573,253.384094 307.283539,253.836594 303.823792,253.483612 
	C302.574524,253.356140 300.470001,251.965805 300.436584,251.087799 
	C300.161011,243.847092 300.280792,236.591309 300.280792,228.754807 
	C305.391266,228.754807 309.696198,228.754807 314.001160,228.754807 
	C320.463196,228.754807 326.925232,228.754807 332.900940,228.754807 
	C333.575806,229.685883 333.921082,229.940430 333.930847,230.207260 
	C334.741760,252.348831 335.130524,274.449097 324.922791,295.045319 
	C318.082642,308.846802 308.531647,314.711243 294.471680,313.711853 
	C279.910797,309.217834 273.048309,298.061951 268.272217,285.189941 
	C261.852295,267.887634 260.747742,249.818008 260.912994,231.569992 
	C261.080109,213.110947 262.943115,194.987610 270.819946,177.984909 
	C275.570618,167.730225 281.830750,158.906479 293.719849,155.289703 
z"/>
<path fill="#212634" opacity="1.000000" stroke="none" 
	d="
M314.000854,228.301727 
	C309.696198,228.754807 305.391266,228.754807 300.280792,228.754807 
	C300.280792,236.591309 300.161011,243.847092 300.436584,251.087799 
	C300.470001,251.965805 302.574524,253.356140 303.823792,253.483612 
	C307.283539,253.836594 310.831573,253.384094 314.273926,253.815109 
	C315.482666,253.966461 317.569763,255.976257 317.411682,256.770264 
	C316.124908,263.232758 315.390503,270.081787 312.601654,275.910675 
	C306.928711,287.767639 292.822784,288.142426 286.616882,276.578827 
	C283.233917,270.275238 280.905182,263.017792 279.847107,255.929871 
	C277.055634,237.230240 276.836761,218.451599 282.914062,200.190842 
	C284.152405,196.469849 286.066437,192.792114 288.421143,189.659897 
	C294.351105,181.772095 304.520172,181.814743 309.776947,190.092789 
	C312.634430,194.592575 313.815704,200.156815 315.771057,205.622147 
	C315.192780,209.155273 314.304382,212.285934 314.073151,215.464401 
	C313.774323,219.572510 314.000488,223.718811 314.000854,228.301727 
z"/>
<path fill="#222A32" opacity="1.000000" stroke="none" 
	d="
M217.870026,157.779251 
	C216.869553,157.815155 215.742645,157.585144 214.302643,157.205139 
	C215.240906,157.207870 216.492233,157.360596 217.870026,157.779251 
z"/>
<path fill="#1E222D" opacity="1.000000" stroke="none" 
	d="
M218.052673,281.345459 
	C211.446564,282.574951 205.180603,283.632080 198.340439,284.786072 
	C198.340439,250.823853 198.340439,218.317566 198.340439,185.837173 
	C213.472733,182.243423 224.245819,187.413681 228.311142,202.069855 
	C234.280014,223.588654 234.224640,245.542725 227.986603,267.037628 
	C226.476990,272.239410 221.678787,276.486816 218.052673,281.345459 
z"/>
</svg>